#!OML:ASF X:\für Bonn\!DataBase\2005_08_10_Bjorn_Final\c3d\bjorn.ASF
:FULLY-SPECIFIED
:DEGREES
316
root 5.57624 19.0255 -0.226606 352.207 -264.922 -371.47
lowerback -2.24946 0.700451 -0.416167
upperback 4.77101 1.3356 -4.16363
thorax 6.32305 0.819972 -4.00991
lowerneck -6.66191 -2.25531 0.00759118
upperneck 6.87184 -2.88724 -1.4542
head 3.3671 -1.48429 -0.619625
rclavicle -1.43125e-014 1.03368e-014
rhumerus -38.1088 -26.8185 -76.1452
rradius 22.7507
rwrist 2.48705
rhand -17.6717 5.57245
rfingers 7.12502
rthumb 8.58715 -24.2329
lclavicle -1.43125e-014 1.03368e-014
lhumerus -26.0174 13.3793 78.2798
lradius 35.8942
lwrist 5.80523
lhand -31.0044 3.53757
lfingers 7.12502
lthumb -4.28742 33.4742
rfemur -6.58166 -8.34984 14.5415
rtibia 28.1415
rfoot -22.5074 20.2863
rtoes 6.88005
lfemur -11.604 0.859809 -19.0567
ltibia 32.4574
lfoot -21.8842 -7.60879
ltoes -8.08999
317
root 5.60628 19.0209 -0.232104 351.359 -264.769 -372.378
lowerback -2.4605 0.65374 -0.779105
upperback 4.7281 1.30647 -4.26235
thorax 6.39214 0.791805 -3.90932
lowerneck -6.62874 -2.25661 0.0197419
upperneck 7.43684 -2.87855 -1.46835
head 3.55712 -1.47907 -0.63299
rclavicle 1.0138e-014 -4.77083e-015
rhumerus -38.2232 -26.9204 -76.3801
rradius 22.4902
rwrist 2.44292
rhand -17.2833 5.44415
rfingers 7.12502
rthumb 8.96197 -24.3455
lclavicle 1.0138e-014 -4.77083e-015
lhumerus -25.8741 14.219 78.6177
lradius 36.2531
lwrist 7.21669
lhand -33.1965 4.04067
lfingers 7.12502
lthumb -6.40392 33.9239
rfemur -6.45516 -8.32065 14.4308
rtibia 28.0428
rfoot -22.599 20.0589
rtoes 6.56422
lfemur -11.5134 1.16958 -19.1212
ltibia 32.3844
lfoot -21.8582 -8.23832
ltoes -7.84092
318
root 5.63686 19.0133 -0.237239 349.946 -264.615 -373.816
lowerback -2.61502 0.606638 -1.21541
upperback 4.69366 1.28238 -4.35988
thorax 6.43688 0.762925 -3.76632
lowerneck -6.62936 -2.26156 -0.0109749
upperneck 8.04055 -2.87065 -1.45861
head 3.77002 -1.47399 -0.632187
rclavicle 1.68967e-014 6.36111e-015
rhumerus -38.3535 -26.9766 -76.5879
rradius 22.2621
rwrist 2.6612
rhand -16.7175 5.513
rfingers 7.12502
rthumb 9.50794 -24.2525
lclavicle 1.68967e-014 6.36111e-015
lhumerus -25.7612 14.7184 78.9971
lradius 36.6623
lwrist 8.70503
lhand -35.022 4.35216
lfingers 7.12502
lthumb -8.16598 34.1744
rfemur -6.31856 -8.3345 14.248
rtibia 27.9992
rfoot -22.668 19.8849
rtoes 6.48016
lfemur -11.389 1.46887 -19.238
ltibia 32.3285
lfoot -21.8017 -8.86023
ltoes -7.26741
319
root 5.66735 19.0043 -0.241853 348.551 -264.465 -375.199
lowerback -2.7185 0.561701 -1.70193
upperback 4.67615 1.26309 -4.42938
thorax 6.46924 0.733333 -3.56577
lowerneck -6.56954 -2.27703 -0.037661
upperneck 8.54241 -2.87442 -1.48714
head 3.93586 -1.47582 -0.642936
rclavicle 1.55052e-014 -1.27222e-014
rhumerus -38.4718 -26.871 -76.8267
rradius 22.0736
rwrist 2.97912
rhand -16.0389 5.7215
rfingers 7.12502
rthumb 10.1627 -24.013
lclavicle 1.55052e-014 -1.27222e-014
lhumerus -25.6217 14.9647 79.4193
lradius 37.0292
lwrist 10.1555
lhand -36.3999 4.41552
lfingers 7.12502
lthumb -9.49567 34.1816
rfemur -6.17168 -8.32979 14.0684
rtibia 28.0077
rfoot -22.7541 19.6446
rtoes 6.20271
lfemur -11.237 1.7496 -19.3571
ltibia 32.2867
lfoot -21.7307 -9.42628
ltoes -6.77503
